<?xml version="1.0" standalone="no"?>
<!DOCTYPE svg PUBLIC "-//W3C//DTD SVG 20010904//EN"
 "http://www.w3.org/TR/2001/REC-SVG-20010904/DTD/svg10.dtd">
<svg version="1.0" xmlns="http://www.w3.org/2000/svg"
 width="285.000000pt" height="285.000000pt" viewBox="0 0 285.000000 285.000000"
 preserveAspectRatio="xMidYMid meet">
<metadata>
Created by potrace 1.14, written by Peter Selinger 2001-2017
</metadata>
<g transform="translate(0.000000,285.000000) scale(0.100000,-0.100000)"
fill="#000000" stroke="none">
<path d="M0 1425 l0 -1425 1425 0 1425 0 0 1425 0 1425 -1425 0 -1425 0 0
-1425z m1310 480 l0 -725 -545 0 -545 0 0 718 c0 395 3 722 7 725 3 4 249 7
545 7 l538 0 0 -725z m1320 355 l0 -370 -545 0 -545 0 0 370 0 370 545 0 545
0 0 -370z m-2 -1312 l-3 -723 -542 -3 -543 -2 0 725 0 725 545 0 545 0 -2
-722z m-1318 -358 l0 -370 -545 0 -545 0 0 363 c0 200 3 367 7 370 3 4 249 7
545 7 l538 0 0 -370z"/>
</g>
</svg>
