<?xml version="1.0" standalone="no"?>
<!DOCTYPE svg PUBLIC "-//W3C//DTD SVG 20010904//EN"
 "http://www.w3.org/TR/2001/REC-SVG-20010904/DTD/svg10.dtd">
<svg version="1.0" xmlns="http://www.w3.org/2000/svg"
 width="500.000000pt" height="500.000000pt" viewBox="0 0 500.000000 500.000000"
 preserveAspectRatio="xMidYMid meet">
<metadata>
Created by potrace 1.14, written by Peter Selinger 2001-2017
</metadata>
<g transform="translate(0.000000,500.000000) scale(0.100000,-0.100000)"
fill="#000000" stroke="none">
<path d="M2159 4566 c-2 -2 -53 -6 -114 -10 -60 -3 -119 -8 -130 -10 -11 -2
-40 -7 -65 -11 -58 -10 -66 -11 -120 -25 -25 -6 -58 -13 -74 -16 -16 -3 -86
-26 -156 -50 -565 -196 -1005 -618 -1241 -1189 -15 -35 -53 -151 -64 -195 -17
-63 -45 -194 -50 -235 -4 -27 -8 -52 -10 -55 -5 -8 -18 -198 -18 -255 0 -797
447 -1519 1154 -1864 335 -163 672 -230 1039 -206 83 5 128 10 265 31 161 25
469 141 650 246 139 81 284 196 415 327 109 110 240 269 240 292 0 25 18 -6
60 -106 23 -55 53 -120 67 -145 14 -25 37 -65 50 -90 35 -63 119 -142 146
-138 12 1 28 -1 35 -5 19 -12 84 61 105 119 21 54 65 196 72 231 3 13 7 35 10
50 3 16 14 69 25 118 10 50 21 110 25 135 3 25 10 60 15 78 4 17 6 32 4 32 -3
0 25 21 63 46 122 83 215 185 272 300 40 80 62 214 39 241 -43 53 -323 63
-520 19 -16 -3 -39 -8 -53 -11 -13 -3 -36 -10 -50 -15 l-25 -10 6 58 c3 31 7
68 10 82 5 32 5 267 -1 345 -10 136 -62 378 -109 507 -24 64 -24 69 -10 130
35 151 114 362 181 481 18 33 33 61 33 63 0 2 19 31 43 66 59 87 152 184 217
227 30 20 56 44 58 54 4 21 -24 51 -39 41 -8 -4 -9 -3 -5 4 8 13 -36 26 -153
47 -54 10 -132 13 -271 10 -176 -3 -220 -8 -355 -39 -11 -2 -65 -19 -120 -37
-96 -32 -106 -33 -229 -30 -120 3 -133 5 -170 29 -235 151 -585 284 -814 308
-31 3 -60 8 -63 10 -4 2 -63 7 -130 10 -68 3 -127 8 -130 10 -3 2 -8 2 -10 0z"/>
</g>
</svg>
